{"title":"While the Children Sleep 2007 (The Sitter) DVDRip BigPerm LKRG","uid":6264221,"size":1101378665,"categoryP":"video","categoryS":"movies","magnet":"?xt=urn:btih:1959d9b3df2aab0c8adae07cfae43ba61e94181a&amp;dn=While+the+Children+Sleep+2007+%28The+Sitter%29+DVDRip+BigPerm+LKRG&amp;tr=udp%3A%2F%2Ftracker.openbittorrent.com%3A80&amp;tr=udp%3A%2F%2Fopen.demonii.com%3A1337&amp;tr=udp%3A%2F%2Ftracker.coppersurfer.tk%3A6969&amp;tr=udp%3A%2F%2Fexodus.desync.com%3A6969","seeders":0,"leechers":1,"uploader":".BONE.","files":2,"time":1300855498,"description":"Plot\n\nA prosperous couple find the perfect live-in nanny, but soon discover she intends to do her job to deadly\nperfection. A thrilling tale that slashes away at the facade of a perfect family.\n &lt;a href=&quot;\nhttp://www.imdb.com/title/tt0961088/&quot; rel=&quot;nofollow&quot; target=&quot;_NEW&quot;&gt;\nhttp://www.imdb.com/title/tt0961088/&lt;/a&gt;\n\nGeneral\nComplete name : While the Children Sleep(The Sitter) 2007 DVDRip Xvid BigPerm LKRG\\TS_LKRG.avi\nFormat : AVI\nFormat/Info : Audio Video Interleave\nFormat profile : OpenDML\nFile size : 1.03 GiB\nDuration : 1h 28mn\nOverall bit rate : 1 660 Kbps\n\nVideo\nID : 0\nFormat : MPEG-4 Visual\nFormat profile : Advanced Simple@L5\nFormat settings, BVOP : Yes\nFormat settings, QPel : No\nFormat settings, GMC : No warppoints\nFormat settings, Matrix : Default (H.263)\nCodec ID : XVID\nCodec ID/Hint : XviD\nDuration : 1h 28mn\nBit rate : 62.3 Kbps\nWidth : 704 pixels\nHeight : 396 pixels\nDisplay aspect ratio : 16:9\nFrame rate : 29.970 fps\nColor space : YUV\nChroma subsampling : 4:2:0\nBit depth : 8 bits\nScan type : Progressive\nCompression mode : Lossy\nBits/(Pixel*Frame) : 0.007\nStream size : 39.4 MiB (4%)\nWriting library : XviD 1.2.1 (UTC 2008-12-04)\n\nAudio\nID : 1\nFormat : AC-3\nFormat/Info : Audio Coding 3\nCodec ID : 2000\nDuration : 1h 28mn\nBit rate mode : Constant\nBit rate : 192 Kbps\nChannel(s) : 2 channels\nSampling rate : 48.0 KHz\nBit depth : 16 bits\nCompression mode : Lossy\nStream size : 121 MiB (12%)\nAlignment : Aligned on interleaves\nLanguage : ENGLISH\n &lt;a href=&quot;\nhttp://www.grinshare.com/img/54Y2BR.png&quot; rel=&quot;nofollow&quot; target=&quot;_NEW&quot;&gt;\nhttp://www.grinshare.com/img/54Y2BR.png&lt;/a&gt;\n &lt;a href=&quot;\nhttp://www.grinshare.com/img/NBJKRJ.png&quot; rel=&quot;nofollow&quot; target=&quot;_NEW&quot;&gt;\nhttp://www.grinshare.com/img/NBJKRJ.png&lt;/a&gt;\n\n","torrent":{"xt":"urn:btih:1959d9b3df2aab0c8adae07cfae43ba61e94181a","amp;dn":"While+the+Children+Sleep+2007+%28The+Sitter%29+DVDRip+BigPerm+LKRG","amp;tr":["udp%3A%2F%2Ftracker.openbittorrent.com%3A80","udp%3A%2F%2Fopen.demonii.com%3A1337","udp%3A%2F%2Ftracker.coppersurfer.tk%3A6969","udp%3A%2F%2Fexodus.desync.com%3A6969"],"infoHash":"1959d9b3df2aab0c8adae07cfae43ba61e94181a","infoHashBuffer":{"type":"Buffer","data":[25,89,217,179,223,42,171,12,138,218,224,124,250,228,59,166,30,148,24,26]},"announce":[],"urlList":[]}}